<?xml version="1.0" encoding="iso-8859-1"?>
<!-- Generator: Adobe Illustrator 19.0.0, SVG Export Plug-In . SVG Version: 6.00 Build 0)  -->
<svg version="1.1" id="Layer_1" xmlns="http://www.w3.org/2000/svg" xmlns:xlink="http://www.w3.org/1999/xlink" x="0px" y="0px"
	 viewBox="0 0 512 512" style="enable-background:new 0 0 512 512;" xml:space="preserve" fill="white">
<g>
	<g>
		<path d="M437.333,106.667h-74.667v-64C362.667,19.135,343.521,0,320,0H192c-23.521,0-42.667,19.135-42.667,42.667v64H74.667
			c-5.896,0-10.667,4.771-10.667,10.667v352C64,492.865,83.146,512,106.667,512h298.667C428.854,512,448,492.865,448,469.333v-352
			C448,111.438,443.229,106.667,437.333,106.667z M170.667,42.667c0-11.76,9.563-21.333,21.333-21.333h128
			c11.771,0,21.333,9.573,21.333,21.333v64H170.667V42.667z M426.667,469.333c0,11.76-9.563,21.333-21.333,21.333H106.667
			c-11.771,0-21.333-9.573-21.333-21.333v-42.667h341.333V469.333z M426.667,405.333H85.333V128h64v32
			c0,5.896,4.771,10.667,10.667,10.667s10.667-4.771,10.667-10.667v-32h170.667v32c0,5.896,4.771,10.667,10.667,10.667
			c5.896,0,10.667-4.771,10.667-10.667v-32h64V405.333z"/>
	</g>
</g>
<g>
</g>
<g>
</g>
<g>
</g>
<g>
</g>
<g>
</g>
<g>
</g>
<g>
</g>
<g>
</g>
<g>
</g>
<g>
</g>
<g>
</g>
<g>
</g>
<g>
</g>
<g>
</g>
<g>
</g>
</svg>
